<svg xmlns="http://www.w3.org/2000/svg" viewBox="0 0 512 512" fill="none">
  <!-- Background Shield Shape -->
  <path d="M256 16L46 96v160c0 124.7 79.8 231.6 210 270.8 130.2-39.2 210-146.1 210-270.8V96L256 16z" fill="url(#paint0_linear)"/>
  
  <!-- Truck Silhouette -->
  <path d="M376 232H360V196C360 188.3 353.7 182 346 182H166C158.3 182 152 188.3 152 196V232H136C128.3 232 122 238.3 122 246V294C122 301.7 128.3 308 136 308H152V324C152 331.7 158.3 338 166 338H190C197.7 338 204 331.7 204 324V308H308V324C308 331.7 314.3 338 322 338H346C353.7 338 360 331.7 360 324V308H376C383.7 308 390 301.7 390 294V246C390 238.3 383.7 232 376 232ZM176 308C163.2 308 152 297.7 152 285C152 272.3 163.2 262 176 262C188.8 262 200 272.3 200 285C200 297.7 188.8 308 176 308ZM336 308C323.2 308 312 297.7 312 285C312 272.3 323.2 262 336 262C348.8 262 360 272.3 360 285C360 297.7 348.8 308 336 308ZM360 252H152V202H360V252Z" fill="white"/>
  
  <!-- Checkmark -->
  <path d="M236 130L196 170L176 150L156 170L176 190L196 210L256 150L236 130Z" fill="#4ADE80"/>
  
  <!-- Gradient Definition -->
  <defs>
    <linearGradient id="paint0_linear" x1="46" y1="96" x2="466" y2="400" gradientUnits="userSpaceOnUse">
      <stop offset="0%" stop-color="#3b82f6"/>
      <stop offset="100%" stop-color="#4f46e5"/>
    </linearGradient>
  </defs>
</svg>